<?xml version="1.0" encoding="utf-8"?><svg width="auto" height="2920" style="overflow:visible " version="1.1" xmlns="http://www.w3.org/2000/svg"><rect x="20" y="20" width="200" height="40" style="fill:white;stroke:black;stroke-width:1" /><text x="30" y="30" font-size="10" style="fill:blue">circuitos</text><rect x="240" y="20" width="200" height="40" style="fill:white;stroke:black;stroke-width:1" /><text x="250" y="30" font-size="10" style="fill:blue">circuito</text><path d="M220 40 C240 40 220 40 240 40" style="fill:transparent;stroke:black" /><text x="250" y="40" font-size="8" style="fill:black">nombre: Spa-Francorchamps</text><text x="250" y="50" font-size="8" style="fill:black">longitud: 7004 metros</text><text x="250" y="60" font-size="8" style="fill:black">localidad: Spa-Francorchamps</text><text x="250" y="70" font-size="8" style="fill:black">pais: Bélgica</text><rect x="460" y="20" width="200" height="40" style="fill:white;stroke:black;stroke-width:1" /><text x="470" y="30" font-size="10" style="fill:blue">vueltas</text><path d="M440 40 C460 40 440 40 460 40" style="fill:transparent;stroke:black" /><rect x="526" y="20" width="137" height="40" style="fill:green;stroke:black;stroke-width:1" /><text x="536" y="30" font-size="8" style="fill:white">44</text><rect x="460" y="70" width="200" height="40" style="fill:white;stroke:black;stroke-width:1" /><text x="470" y="80" font-size="10" style="fill:blue">anchura_media</text><path d="M440 40 C460 40 440 90 460 90" style="fill:transparent;stroke:black" /><rect x="526" y="70" width="137" height="40" style="fill:green;stroke:black;stroke-width:1" /><text x="536" y="80" font-size="8" style="fill:white">10 metros</text><rect x="460" y="120" width="200" height="40" style="fill:white;stroke:black;stroke-width:1" /><text x="470" y="130" font-size="10" style="fill:blue">fecha2024</text><path d="M440 40 C460 40 440 140 460 140" style="fill:transparent;stroke:black" /><rect x="526" y="120" width="137" height="40" style="fill:green;stroke:black;stroke-width:1" /><text x="536" y="130" font-size="8" style="fill:white">Domingo 28 de julio</text><rect x="460" y="170" width="200" height="40" style="fill:white;stroke:black;stroke-width:1" /><text x="470" y="180" font-size="10" style="fill:blue">hora_inicio_españa</text><path d="M440 40 C460 40 440 190 460 190" style="fill:transparent;stroke:black" /><rect x="526" y="170" width="137" height="40" style="fill:green;stroke:black;stroke-width:1" /><text x="536" y="180" font-size="8" style="fill:white">15:00</text><rect x="460" y="220" width="200" height="40" style="fill:white;stroke:black;stroke-width:1" /><text x="470" y="230" font-size="10" style="fill:blue">referencias</text><path d="M440 40 C460 40 440 240 460 240" style="fill:transparent;stroke:black" /><rect x="680" y="220" width="200" height="40" style="fill:white;stroke:black;stroke-width:1" /><text x="690" y="230" font-size="10" style="fill:blue">referencia</text><path d="M660 240 C680 240 660 240 680 240" style="fill:transparent;stroke:black" /><rect x="746" y="220" width="137" height="40" style="fill:green;stroke:black;stroke-width:1" /><text x="756" y="230" font-size="8" style="fill:white">https://es.wikipedia.org/wiki/Circuito_de_Spa-Francorchamps</text><rect x="680" y="270" width="200" height="40" style="fill:white;stroke:black;stroke-width:1" /><text x="690" y="280" font-size="10" style="fill:blue">referencia</text><path d="M660 240 C680 240 660 290 680 290" style="fill:transparent;stroke:black" /><rect x="746" y="270" width="137" height="40" style="fill:green;stroke:black;stroke-width:1" /><text x="756" y="280" font-size="8" style="fill:white">https://circuitomotor.com/belgica/circuito-de-spa-francorchamps/</text><rect x="680" y="320" width="200" height="40" style="fill:white;stroke:black;stroke-width:1" /><text x="690" y="330" font-size="10" style="fill:blue">referencia</text><path d="M660 240 C680 240 660 340 680 340" style="fill:transparent;stroke:black" /><rect x="746" y="320" width="137" height="40" style="fill:green;stroke:black;stroke-width:1" /><text x="756" y="330" font-size="8" style="fill:white">https://motorsporttickets.com/blog/spa-francorchamps-track-guide/</text><rect x="680" y="370" width="200" height="40" style="fill:white;stroke:black;stroke-width:1" /><text x="690" y="380" font-size="10" style="fill:blue">referencia</text><path d="M660 240 C680 240 660 390 680 390" style="fill:transparent;stroke:black" /><rect x="746" y="370" width="137" height="40" style="fill:green;stroke:black;stroke-width:1" /><text x="756" y="380" font-size="8" style="fill:white">https://lebalap.academy/f1/spa-francorchamps/</text><rect x="680" y="420" width="200" height="40" style="fill:white;stroke:black;stroke-width:1" /><text x="690" y="430" font-size="10" style="fill:blue">referencia</text><path d="M660 240 C680 240 660 440 680 440" style="fill:transparent;stroke:black" /><rect x="746" y="420" width="137" height="40" style="fill:green;stroke:black;stroke-width:1" /><text x="756" y="430" font-size="8" style="fill:white">https://desdelapelouse.wordpress.com/2011/08/27/circuito-de-spa-francorchamps/#:~:text=Longitud%3A%207%2C004%20km,de%20la%20pista%3A%2010%20m</text><rect x="460" y="520" width="200" height="40" style="fill:white;stroke:black;stroke-width:1" /><text x="470" y="530" font-size="10" style="fill:blue">fotos</text><path d="M440 40 C460 40 440 540 460 540" style="fill:transparent;stroke:black" /><rect x="680" y="520" width="200" height="40" style="fill:white;stroke:black;stroke-width:1" /><text x="690" y="530" font-size="10" style="fill:blue">foto</text><path d="M660 540 C680 540 660 540 680 540" style="fill:transparent;stroke:black" /><rect x="746" y="520" width="137" height="40" style="fill:green;stroke:black;stroke-width:1" /><text x="756" y="530" font-size="8" style="fill:white">spa.jpg</text><rect x="680" y="570" width="200" height="40" style="fill:white;stroke:black;stroke-width:1" /><text x="690" y="580" font-size="10" style="fill:blue">foto</text><path d="M660 540 C680 540 660 590 680 590" style="fill:transparent;stroke:black" /><rect x="746" y="570" width="137" height="40" style="fill:green;stroke:black;stroke-width:1" /><text x="756" y="580" font-size="8" style="fill:white">spa-esquema.png</text><rect x="460" y="670" width="200" height="40" style="fill:white;stroke:black;stroke-width:1" /><text x="470" y="680" font-size="10" style="fill:blue">videos</text><path d="M440 40 C460 40 440 690 460 690" style="fill:transparent;stroke:black" /><rect x="680" y="670" width="200" height="40" style="fill:white;stroke:black;stroke-width:1" /><text x="690" y="680" font-size="10" style="fill:blue">video</text><path d="M660 690 C680 690 660 690 680 690" style="fill:transparent;stroke:black" /><rect x="746" y="670" width="137" height="40" style="fill:green;stroke:black;stroke-width:1" /><text x="756" y="680" font-size="8" style="fill:white">onboard_spa.mp4</text><rect x="460" y="770" width="200" height="40" style="fill:white;stroke:black;stroke-width:1" /><text x="470" y="780" font-size="10" style="fill:blue">coordenadas</text><path d="M440 40 C460 40 440 790 460 790" style="fill:transparent;stroke:black" /><rect x="680" y="770" width="200" height="40" style="fill:white;stroke:black;stroke-width:1" /><text x="690" y="780" font-size="10" style="fill:blue">coordenada</text><path d="M660 790 C680 790 660 790 680 790" style="fill:transparent;stroke:black" /><text x="690" y="790" font-size="8" style="fill:black">longitud: 5,9651156</text><text x="690" y="800" font-size="8" style="fill:black">latitud: 50,4441123</text><text x="690" y="810" font-size="8" style="fill:black">altitud: 415,53 metros</text><rect x="460" y="870" width="200" height="40" style="fill:white;stroke:black;stroke-width:1" /><text x="470" y="880" font-size="10" style="fill:blue">tramos</text><path d="M440 40 C460 40 440 890 460 890" style="fill:transparent;stroke:black" /><rect x="680" y="870" width="200" height="40" style="fill:white;stroke:black;stroke-width:1" /><text x="690" y="880" font-size="10" style="fill:blue">tramo</text><path d="M660 890 C680 890 660 890 680 890" style="fill:transparent;stroke:black" /><text x="690" y="890" font-size="8" style="fill:black">distancia: 231,59 metros</text><text x="690" y="900" font-size="8" style="fill:black">numero_sector: 1</text><rect x="900" y="870" width="200" height="40" style="fill:white;stroke:black;stroke-width:1" /><text x="910" y="880" font-size="10" style="fill:blue">coordenada</text><path d="M880 890 C900 890 880 890 900 890" style="fill:transparent;stroke:black" /><text x="910" y="890" font-size="8" style="fill:black">longitud: 5,9635820</text><text x="910" y="900" font-size="8" style="fill:black">latitud: 50,4459406</text><text x="910" y="910" font-size="8" style="fill:black">altitud: 420,44 metros</text><rect x="680" y="970" width="200" height="40" style="fill:white;stroke:black;stroke-width:1" /><text x="690" y="980" font-size="10" style="fill:blue">tramo</text><path d="M660 890 C680 890 660 990 680 990" style="fill:transparent;stroke:black" /><text x="690" y="990" font-size="8" style="fill:black">distancia: 84,48 metros</text><text x="690" y="1000" font-size="8" style="fill:black">numero_sector: 1</text><rect x="900" y="970" width="200" height="40" style="fill:white;stroke:black;stroke-width:1" /><text x="910" y="980" font-size="10" style="fill:blue">coordenada</text><path d="M880 990 C900 990 880 990 900 990" style="fill:transparent;stroke:black" /><text x="910" y="990" font-size="8" style="fill:black">longitud: 5,9640211</text><text x="910" y="1000" font-size="8" style="fill:black">latitud: 50,4460593</text><text x="910" y="1010" font-size="8" style="fill:black">altitud: 419,72 metros</text><rect x="680" y="1070" width="200" height="40" style="fill:white;stroke:black;stroke-width:1" /><text x="690" y="1080" font-size="10" style="fill:blue">tramo</text><path d="M660 890 C680 890 660 1090 680 1090" style="fill:transparent;stroke:black" /><text x="690" y="1090" font-size="8" style="fill:black">distancia: 604,44 metros</text><text x="690" y="1100" font-size="8" style="fill:black">numero_sector: 1</text><rect x="900" y="1070" width="200" height="40" style="fill:white;stroke:black;stroke-width:1" /><text x="910" y="1080" font-size="10" style="fill:blue">coordenada</text><path d="M880 1090 C900 1090 880 1090 900 1090" style="fill:transparent;stroke:black" /><text x="910" y="1090" font-size="8" style="fill:black">longitud: 5,9702641</text><text x="910" y="1100" font-size="8" style="fill:black">latitud: 50,4425206</text><text x="910" y="1110" font-size="8" style="fill:black">altitud: 389,26 metros</text><rect x="680" y="1170" width="200" height="40" style="fill:white;stroke:black;stroke-width:1" /><text x="690" y="1180" font-size="10" style="fill:blue">tramo</text><path d="M660 890 C680 890 660 1190 680 1190" style="fill:transparent;stroke:black" /><text x="690" y="1190" font-size="8" style="fill:black">distancia: 620,32 metros</text><text x="690" y="1200" font-size="8" style="fill:black">numero_sector: 1</text><rect x="900" y="1170" width="200" height="40" style="fill:white;stroke:black;stroke-width:1" /><text x="910" y="1180" font-size="10" style="fill:blue">coordenada</text><path d="M880 1190 C900 1190 880 1190 900 1190" style="fill:transparent;stroke:black" /><text x="910" y="1190" font-size="8" style="fill:black">longitud: 5,9747507</text><text x="910" y="1200" font-size="8" style="fill:black">latitud: 50,4378601</text><text x="910" y="1210" font-size="8" style="fill:black">altitud: 431,43 metros</text><rect x="680" y="1270" width="200" height="40" style="fill:white;stroke:black;stroke-width:1" /><text x="690" y="1280" font-size="10" style="fill:blue">tramo</text><path d="M660 890 C680 890 660 1290 680 1290" style="fill:transparent;stroke:black" /><text x="690" y="1290" font-size="8" style="fill:black">distancia: 729,46 metros</text><text x="690" y="1300" font-size="8" style="fill:black">numero_sector: 2</text><rect x="900" y="1270" width="200" height="40" style="fill:white;stroke:black;stroke-width:1" /><text x="910" y="1280" font-size="10" style="fill:blue">coordenada</text><path d="M880 1290 C900 1290 880 1290 900 1290" style="fill:transparent;stroke:black" /><text x="910" y="1290" font-size="8" style="fill:black">longitud: 5,9773975</text><text x="910" y="1300" font-size="8" style="fill:black">latitud: 50,4318141</text><text x="910" y="1310" font-size="8" style="fill:black">altitud: 462,26 metros</text><rect x="680" y="1370" width="200" height="40" style="fill:white;stroke:black;stroke-width:1" /><text x="690" y="1380" font-size="10" style="fill:blue">tramo</text><path d="M660 890 C680 890 660 1390 680 1390" style="fill:transparent;stroke:black" /><text x="690" y="1390" font-size="8" style="fill:black">distancia: 323,30 metros</text><text x="690" y="1400" font-size="8" style="fill:black">numero_sector: 2</text><rect x="900" y="1370" width="200" height="40" style="fill:white;stroke:black;stroke-width:1" /><text x="910" y="1380" font-size="10" style="fill:blue">coordenada</text><path d="M880 1390 C900 1390 880 1390 900 1390" style="fill:transparent;stroke:black" /><text x="910" y="1390" font-size="8" style="fill:black">longitud: 5,9765622</text><text x="910" y="1400" font-size="8" style="fill:black">latitud: 50,4291776</text><text x="910" y="1410" font-size="8" style="fill:black">altitud: 466,90 metros</text><rect x="680" y="1470" width="200" height="40" style="fill:white;stroke:black;stroke-width:1" /><text x="690" y="1480" font-size="10" style="fill:blue">tramo</text><path d="M660 890 C680 890 660 1490 680 1490" style="fill:transparent;stroke:black" /><text x="690" y="1490" font-size="8" style="fill:black">distancia: 258,24 metros</text><text x="690" y="1500" font-size="8" style="fill:black">numero_sector: 2</text><rect x="900" y="1470" width="200" height="40" style="fill:white;stroke:black;stroke-width:1" /><text x="910" y="1480" font-size="10" style="fill:blue">coordenada</text><path d="M880 1490 C900 1490 880 1490 900 1490" style="fill:transparent;stroke:black" /><text x="910" y="1490" font-size="8" style="fill:black">longitud: 5,9736773</text><text x="910" y="1500" font-size="8" style="fill:black">latitud: 50,4278056</text><text x="910" y="1510" font-size="8" style="fill:black">altitud: 457,51 metros</text><rect x="680" y="1570" width="200" height="40" style="fill:white;stroke:black;stroke-width:1" /><text x="690" y="1580" font-size="10" style="fill:blue">tramo</text><path d="M660 890 C680 890 660 1590 680 1590" style="fill:transparent;stroke:black" /><text x="690" y="1590" font-size="8" style="fill:black">distancia: 400,36 metros</text><text x="690" y="1600" font-size="8" style="fill:black">numero_sector: 2</text><rect x="900" y="1570" width="200" height="40" style="fill:white;stroke:black;stroke-width:1" /><text x="910" y="1580" font-size="10" style="fill:blue">coordenada</text><path d="M880 1590 C900 1590 880 1590 900 1590" style="fill:transparent;stroke:black" /><text x="910" y="1590" font-size="8" style="fill:black">longitud: 5,9742150</text><text x="910" y="1600" font-size="8" style="fill:black">latitud: 50,4298864</text><text x="910" y="1610" font-size="8" style="fill:black">altitud: 430,27 metros</text><rect x="680" y="1670" width="200" height="40" style="fill:white;stroke:black;stroke-width:1" /><text x="690" y="1680" font-size="10" style="fill:blue">tramo</text><path d="M660 890 C680 890 660 1690 680 1690" style="fill:transparent;stroke:black" /><text x="690" y="1690" font-size="8" style="fill:black">distancia: 398,38 metros</text><text x="690" y="1700" font-size="8" style="fill:black">numero_sector: 2</text><rect x="900" y="1670" width="200" height="40" style="fill:white;stroke:black;stroke-width:1" /><text x="910" y="1680" font-size="10" style="fill:blue">coordenada</text><path d="M880 1690 C900 1690 880 1690 900 1690" style="fill:transparent;stroke:black" /><text x="910" y="1690" font-size="8" style="fill:black">longitud: 5,9728439</text><text x="910" y="1700" font-size="8" style="fill:black">latitud: 50,4331417</text><text x="910" y="1710" font-size="8" style="fill:black">altitud: 402,89 metros</text><rect x="680" y="1770" width="200" height="40" style="fill:white;stroke:black;stroke-width:1" /><text x="690" y="1780" font-size="10" style="fill:blue">tramo</text><path d="M660 890 C680 890 660 1790 680 1790" style="fill:transparent;stroke:black" /><text x="690" y="1790" font-size="8" style="fill:black">distancia: 388,68 metros</text><text x="690" y="1800" font-size="8" style="fill:black">numero_sector: 2</text><rect x="900" y="1770" width="200" height="40" style="fill:white;stroke:black;stroke-width:1" /><text x="910" y="1780" font-size="10" style="fill:blue">coordenada</text><path d="M880 1790 C900 1790 880 1790 900 1790" style="fill:transparent;stroke:black" /><text x="910" y="1790" font-size="8" style="fill:black">longitud: 5,9689687</text><text x="910" y="1800" font-size="8" style="fill:black">latitud: 50,4331909</text><text x="910" y="1810" font-size="8" style="fill:black">altitud: 376,36 metros</text><rect x="680" y="1870" width="200" height="40" style="fill:white;stroke:black;stroke-width:1" /><text x="690" y="1880" font-size="10" style="fill:blue">tramo</text><path d="M660 890 C680 890 660 1890 680 1890" style="fill:transparent;stroke:black" /><text x="690" y="1890" font-size="8" style="fill:black">distancia: 252,50 metros</text><text x="690" y="1900" font-size="8" style="fill:black">numero_sector: 2</text><rect x="900" y="1870" width="200" height="40" style="fill:white;stroke:black;stroke-width:1" /><text x="910" y="1880" font-size="10" style="fill:blue">coordenada</text><path d="M880 1890 C900 1890 880 1890 900 1890" style="fill:transparent;stroke:black" /><text x="910" y="1890" font-size="8" style="fill:black">longitud: 5,9672066</text><text x="910" y="1900" font-size="8" style="fill:black">latitud: 50,4309271</text><text x="910" y="1910" font-size="8" style="fill:black">altitud: 374,64 metros</text><rect x="680" y="1970" width="200" height="40" style="fill:white;stroke:black;stroke-width:1" /><text x="690" y="1980" font-size="10" style="fill:blue">tramo</text><path d="M660 890 C680 890 660 1990 680 1990" style="fill:transparent;stroke:black" /><text x="690" y="1990" font-size="8" style="fill:black">distancia: 327,42 metros</text><text x="690" y="2000" font-size="8" style="fill:black">numero_sector: 2</text><rect x="900" y="1970" width="200" height="40" style="fill:white;stroke:black;stroke-width:1" /><text x="910" y="1980" font-size="10" style="fill:blue">coordenada</text><path d="M880 1990 C900 1990 880 1990 900 1990" style="fill:transparent;stroke:black" /><text x="910" y="1990" font-size="8" style="fill:black">longitud: 5,9641197</text><text x="910" y="2000" font-size="8" style="fill:black">latitud: 50,4299884</text><text x="910" y="2010" font-size="8" style="fill:black">altitud: 378,64 metros</text><rect x="680" y="2070" width="200" height="40" style="fill:white;stroke:black;stroke-width:1" /><text x="690" y="2080" font-size="10" style="fill:blue">tramo</text><path d="M660 890 C680 890 660 2090 680 2090" style="fill:transparent;stroke:black" /><text x="690" y="2090" font-size="8" style="fill:black">distancia: 166,38 metros</text><text x="690" y="2100" font-size="8" style="fill:black">numero_sector: 2</text><rect x="900" y="2070" width="200" height="40" style="fill:white;stroke:black;stroke-width:1" /><text x="910" y="2080" font-size="10" style="fill:blue">coordenada</text><path d="M880 2090 C900 2090 880 2090 900 2090" style="fill:transparent;stroke:black" /><text x="910" y="2090" font-size="8" style="fill:black">longitud: 5,9626888</text><text x="910" y="2100" font-size="8" style="fill:black">latitud: 50,4289593</text><text x="910" y="2110" font-size="8" style="fill:black">altitud: 373,33 metros</text><rect x="680" y="2170" width="200" height="40" style="fill:white;stroke:black;stroke-width:1" /><text x="690" y="2180" font-size="10" style="fill:blue">tramo</text><path d="M660 890 C680 890 660 2190 680 2190" style="fill:transparent;stroke:black" /><text x="690" y="2190" font-size="8" style="fill:black">distancia: 401,93 metros</text><text x="690" y="2200" font-size="8" style="fill:black">numero_sector: 3</text><rect x="900" y="2170" width="200" height="40" style="fill:white;stroke:black;stroke-width:1" /><text x="910" y="2180" font-size="10" style="fill:blue">coordenada</text><path d="M880 2190 C900 2190 880 2190 900 2190" style="fill:transparent;stroke:black" /><text x="910" y="2190" font-size="8" style="fill:black">longitud: 5,9602308</text><text x="910" y="2200" font-size="8" style="fill:black">latitud: 50,4306014</text><text x="910" y="2210" font-size="8" style="fill:black">altitud: 365,86 metros</text><rect x="680" y="2270" width="200" height="40" style="fill:white;stroke:black;stroke-width:1" /><text x="690" y="2280" font-size="10" style="fill:blue">tramo</text><path d="M660 890 C680 890 660 2290 680 2290" style="fill:transparent;stroke:black" /><text x="690" y="2290" font-size="8" style="fill:black">distancia: 436,55 metros</text><text x="690" y="2300" font-size="8" style="fill:black">numero_sector: 3</text><rect x="900" y="2270" width="200" height="40" style="fill:white;stroke:black;stroke-width:1" /><text x="910" y="2280" font-size="10" style="fill:blue">coordenada</text><path d="M880 2290 C900 2290 880 2290 900 2290" style="fill:transparent;stroke:black" /><text x="910" y="2290" font-size="8" style="fill:black">longitud: 5,9649807</text><text x="910" y="2300" font-size="8" style="fill:black">latitud: 50,4331599</text><text x="910" y="2310" font-size="8" style="fill:black">altitud: 373,86 metros</text><rect x="680" y="2370" width="200" height="40" style="fill:white;stroke:black;stroke-width:1" /><text x="690" y="2380" font-size="10" style="fill:blue">tramo</text><path d="M660 890 C680 890 660 2390 680 2390" style="fill:transparent;stroke:black" /><text x="690" y="2390" font-size="8" style="fill:black">distancia: 519,86 metros</text><text x="690" y="2400" font-size="8" style="fill:black">numero_sector: 3</text><rect x="900" y="2370" width="200" height="40" style="fill:white;stroke:black;stroke-width:1" /><text x="910" y="2380" font-size="10" style="fill:blue">coordenada</text><path d="M880 2390 C900 2390 880 2390 900 2390" style="fill:transparent;stroke:black" /><text x="910" y="2390" font-size="8" style="fill:black">longitud: 5,9677921</text><text x="910" y="2400" font-size="8" style="fill:black">latitud: 50,4373140</text><text x="910" y="2410" font-size="8" style="fill:black">altitud: 393,55 metros</text><rect x="680" y="2470" width="200" height="40" style="fill:white;stroke:black;stroke-width:1" /><text x="690" y="2480" font-size="10" style="fill:blue">tramo</text><path d="M660 890 C680 890 660 2490 680 2490" style="fill:transparent;stroke:black" /><text x="690" y="2490" font-size="8" style="fill:black">distancia: 458,92 metros</text><text x="690" y="2500" font-size="8" style="fill:black">numero_sector: 3</text><rect x="900" y="2470" width="200" height="40" style="fill:white;stroke:black;stroke-width:1" /><text x="910" y="2480" font-size="10" style="fill:blue">coordenada</text><path d="M880 2490 C900 2490 880 2490 900 2490" style="fill:transparent;stroke:black" /><text x="910" y="2490" font-size="8" style="fill:black">longitud: 5,9665730</text><text x="910" y="2500" font-size="8" style="fill:black">latitud: 50,4412244</text><text x="910" y="2510" font-size="8" style="fill:black">altitud: 405,07 metros</text><rect x="680" y="2570" width="200" height="40" style="fill:white;stroke:black;stroke-width:1" /><text x="690" y="2580" font-size="10" style="fill:blue">tramo</text><path d="M660 890 C680 890 660 2590 680 2590" style="fill:transparent;stroke:black" /><text x="690" y="2590" font-size="8" style="fill:black">distancia: 124,57 metros</text><text x="690" y="2600" font-size="8" style="fill:black">numero_sector: 3</text><rect x="900" y="2570" width="200" height="40" style="fill:white;stroke:black;stroke-width:1" /><text x="910" y="2580" font-size="10" style="fill:blue">coordenada</text><path d="M880 2590 C900 2590 880 2590 900 2590" style="fill:transparent;stroke:black" /><text x="910" y="2590" font-size="8" style="fill:black">longitud: 5,9668340</text><text x="910" y="2600" font-size="8" style="fill:black">latitud: 50,4418184</text><text x="910" y="2610" font-size="8" style="fill:black">altitud: 408,14 metros</text><rect x="680" y="2670" width="200" height="40" style="fill:white;stroke:black;stroke-width:1" /><text x="690" y="2680" font-size="10" style="fill:blue">tramo</text><path d="M660 890 C680 890 660 2690 680 2690" style="fill:transparent;stroke:black" /><text x="690" y="2690" font-size="8" style="fill:black">distancia: 276,62 metros</text><text x="690" y="2700" font-size="8" style="fill:black">numero_sector: 3</text><rect x="900" y="2670" width="200" height="40" style="fill:white;stroke:black;stroke-width:1" /><text x="910" y="2680" font-size="10" style="fill:blue">coordenada</text><path d="M880 2690 C900 2690 880 2690 900 2690" style="fill:transparent;stroke:black" /><text x="910" y="2690" font-size="8" style="fill:black">longitud: 5,9651156</text><text x="910" y="2700" font-size="8" style="fill:black">latitud: 50,4441123</text><text x="910" y="2710" font-size="8" style="fill:black">altitud: 415,53 metros</text></svg>