<?xml version="1.0" encoding="UTF-8" ?>
<svg xmlns="http://www.w3.org/2000/svg" version="2.0" width="800" height="400">
<polyline points="50,400 50.0,102.73000000000002 60.0,95.52999999999997 70.0,94.82999999999998 80.0,94.95999999999998 90.0,95.63 100.0,96.50999999999999 110.0,105.79000000000002 120.0,109.19999999999999 130.0,113.04000000000002 140.0,115.33999999999997 150.0,129.36 160.0,126.36000000000001 170.0,122.63999999999999 180.0,117.95999999999998 190.0,105.44999999999999 200.0,91.69999999999999 210.0,54.75999999999999 220.0,55.02999999999997 230.0,54.31 240.0,52.95999999999998 250.0,51.860000000000014 260.0,50.0 270.0,50.99000000000001 280.0,63.70999999999998 290.0,65.10000000000002 300.0,67.07 310.0,68.57 320.0,71.77999999999997 330.0,74.32 340.0,84.81 350.0,86.38999999999999 360.0,98.11000000000001 370.0,118.50999999999999 380.0,122.17000000000002 390.0,125.31 400.0,129.93 410.0,132.76 420.0,136.69 430.0,139.12 440.0,141.12 450.0,143.26 460.0,142.95 470.0,142.07999999999998 480.0,141.86 490.0,141.39999999999998 500.0,142.08999999999997 510.0,142.70999999999998 520.0,143.26 530.0,147.08999999999997 540.0,148.3 550.0,148.98000000000002 560.0,152.67000000000002 570.0,152.2 580.0,152.76999999999998 590.0,152.73000000000002 600.0,149.76999999999998 610.0,145.42000000000002 620.0,140.58999999999997 630.0,136.95 640.0,132.17000000000002 650.0,126.76999999999998 660.0,124.82 670.0,121.36000000000001 680.0,117.72000000000003 690.0,111.80000000000001 700.0,111.82999999999998 710.0,111.87 720.0,110.91000000000003 730.0,110.27999999999997 740.0,109.82999999999998 750.0,102.73000000000002 750,400 50,400" style="fill:white;stroke:red;stroke-width:4" />
</svg>